<svg width="498" height="396" viewBox="0 0 498 396" fill="none" xmlns="http://www.w3.org/2000/svg">
<path d="M79.2576 395.85V375.022H82.2399V393.173H89.9615V395.85H79.2576Z" fill="#6B20BA"/>
<path d="M94.1652 395.85V375.023H97.1475V395.85H94.1652Z" fill="#6B20BA"/>
<path d="M111.485 388.114V385.437H117.895V394.007L114.437 396H106.596L103.138 394.007V376.866L106.596 374.873H114.437L117.895 376.866V380.228H114.913V377.55H106.12V393.323H114.913V388.114H111.485Z" fill="#6B20BA"/>
<path d="M126.868 386.476V395.85H123.886V375.023H126.868V383.803H136.857V375.023H139.839V395.85H136.857V386.476H126.868Z" fill="#6B20BA"/>
<path d="M152.955 377.7V395.85H149.973V377.7H144.038V375.023H158.886V377.7H152.951H152.955Z" fill="#6B20BA"/>
<path d="M163.093 384.842V376.866L166.551 374.873H173.497L176.955 376.866V379.933H173.973V377.55H166.071V383.859H173.493L176.951 385.852V394.003L173.493 395.996H166.247L162.789 394.003V390.937H165.771V393.319H173.969V386.831H166.547L163.089 384.838L163.093 384.842Z" fill="#6B20BA"/>
<path d="M206.976 394.007L203.518 396H194.781L191.323 394.007V376.866L194.781 374.873H203.518L206.976 376.866V394.007ZM194.305 377.55V393.323H203.994V377.55H194.305Z" fill="#6B20BA"/>
<path d="M215.949 386.476V395.85H212.966V375.023H225.161V377.7H215.949V383.799H223.37V386.476H215.949Z" fill="#6B20BA"/>
<path d="M232.348 386.476V395.85H229.365V375.023H241.56V377.7H232.348V383.799H239.769V386.476H232.348Z" fill="#6B20BA"/>
<path d="M246.059 395.85V391.386H250.533V395.85H246.059Z" fill="#6B20BA"/>
<path d="M276.976 390.641H279.958V394.003L276.5 395.996H268.659L265.201 394.003V376.862L268.659 374.869H276.5L279.958 376.862V380.223H276.976V377.546H268.179V393.319H276.976V390.641Z" fill="#8F49EA"/>
<path d="M301.302 394.007L297.844 396H289.107L285.649 394.007V376.866L289.107 374.873H297.844L301.302 376.866V394.007ZM288.631 377.55V393.323H298.319V377.55H288.631Z" fill="#8F49EA"/>
<path d="M322.946 393.857L319.488 395.85H307.293V375.023H319.488L322.946 377.016V393.857ZM310.28 377.7V393.173H319.968V377.7H310.28Z" fill="#8F49EA"/>
<path d="M331.923 386.476V393.169H340.836V395.846H328.94V375.019H340.836V377.696H331.923V383.794H339.049V386.472H331.923V386.476Z" fill="#8F49EA"/>
<path d="M369.665 394.007L366.207 396H357.47L354.012 394.007V376.866L357.47 374.873H366.207L369.665 376.866V394.007ZM356.994 377.55V393.323H366.683V377.55H356.994Z" fill="#8F49EA"/>
<path d="M388.326 375.023H391.309V394.007L387.851 396H379.113L375.656 394.007V375.023H378.638V393.024H388.326V375.023Z" fill="#8F49EA"/>
<path d="M404.424 377.7V395.85H401.442V377.7H395.507V375.023H410.355V377.7H404.42H404.424Z" fill="#8F49EA"/>
<path d="M414.859 395.85V391.386H419.332V395.85H414.859Z" fill="#8F49EA"/>
<path d="M117.324 67.5782L142.783 68.9207L184.278 93.7674L182.202 173.295L212.05 201.207L169.236 181.579L155.232 98.4272L117.324 67.5782Z" fill="#3A0B77"/>
<path d="M380.655 67.5251L355.194 68.8723L313.699 93.719L315.775 173.246L285.956 201.143L328.741 181.53L342.745 98.3787L380.655 67.5251Z" fill="#3A0B77"/>
<path d="M212.05 201.207L223.461 264.103L117.349 205.678L117.324 67.5782L171.281 98.4249L171.533 178.587L212.05 201.207Z" fill="url(#paint0_linear_9955_654)"/>
<path d="M274.712 264.008L285.956 201.143L326.436 178.564L326.774 98.5079L380.655 67.5251V91.1792L380.62 205.8L274.712 264.008Z" fill="url(#paint1_linear_9955_654)"/>
<path d="M337.97 50.8076L322.001 57.6081L296.494 71.6105L257.802 267.98L276.968 47.7326L297.335 38.2793L337.97 50.8076Z" fill="#3A0B77"/>
<path d="M159.963 50.8122L175.913 57.6081L201.421 71.6105L240.322 268.01L220.949 47.7326L200.582 38.2793L159.963 50.8122Z" fill="#3A0B77"/>
<path d="M272.375 154.547L257.789 268.077C257.712 268.665 256.818 268.848 256.314 268.871L256.141 205.117L255.838 12.9851L272.673 0.00697327L391.782 0.0185073L337.97 50.8076L308.94 50.9091L283.881 63.8988L272.373 154.547H272.375Z" fill="url(#paint2_linear_9955_654)"/>
<path d="M240.313 268.01L231.847 202.893L214.101 63.8688L189.062 50.9344L159.961 50.8122L106.258 0.0230681L225.336 0L242.044 13.1119L241.973 152.593L241.744 268.103C241.744 268.744 241.383 268.728 241.187 268.73C240.937 268.732 240.392 268.594 240.315 268.01H240.313Z" fill="url(#paint3_linear_9955_654)"/>
<path d="M497.947 336.235C496.019 336.827 492.75 336.178 491.51 334.677L474.497 314.007L474.202 336.393L469.398 336.34L469.538 307.266C472.562 306.7 475.177 307.496 476.504 309.118L493.139 329.429L493.4 307.172L498.007 307.194L497.951 336.235H497.947Z" fill="#F6F6F6"/>
<path d="M0.00755954 319.142L5.15938 319.036L4.8759 332.145C9.04877 332.315 14.605 332.538 19.0236 331.56C23.6576 330.534 25.0825 325.408 25.1657 321.711C25.2375 318.425 23.5442 312.581 18.9782 312.155C12.6622 311.563 6.59192 311.616 0.120953 311.484L0.0718156 306.994L17.1942 307.232C25.5172 307.349 30.5103 314.577 30.3137 322.243C30.1248 329.689 25.2564 336.227 17.1828 336.355L0.098274 336.631L0 319.142H0.00755954Z" fill="#F6F6F6"/>
<path d="M121.618 325.517L121.607 336.408L116.83 336.476L116.754 321.371L134.821 321.284C136.919 321.273 139.656 319.198 140.132 317.357C140.608 315.516 138.669 311.74 136.923 311.721L116.992 311.544L117.026 307.096L135.717 307.07C140.483 307.062 144.641 310.224 145.284 314.388C146.028 319.217 143.602 323.533 137.958 325.302L145.628 336.091C145.136 336.638 140.514 336.846 139.523 335.461L132.769 326.019L121.615 325.517H121.618Z" fill="#F6F6F6"/>
<path d="M193.418 319.625L207.925 336.261C206.677 336.657 202.251 336.68 201.08 335.574L190.269 323.152L181.667 332.043C180.994 332.738 181.425 337.046 180.51 336.729L176.322 335.284L176.341 307.326L181.285 307.123L181.618 324.917L199.915 307.436L206.447 307.349L193.418 319.625Z" fill="#F6F6F6"/>
<path d="M432.695 332.669L422.274 312.461L410.95 335.42C410.175 336.449 406.24 336.604 405.065 336.185L419.405 307.33L425.275 307.368L439.634 336.023L435.103 336.31C433.984 336.382 433.296 333.82 432.699 332.666L432.695 332.669Z" fill="#F6F6F6"/>
<path d="M81.8721 336.483L69.8336 312.223L57.9122 335.853L52.4202 336.34L66.8929 307.632L72.4983 307.341L87.3603 336.159L81.8721 336.483Z" fill="#F6F6F6"/>
<path d="M283.633 336.118L278.598 336.589L278.515 311.536L266.866 311.631L267.04 307.142L294.557 307.032L295.195 311.582L283.433 311.669L283.633 336.118Z" fill="#F6F6F6"/>
<path d="M372.047 336.186L366.805 336.446L366.839 311.771L355.027 311.537L355.175 307.089L383.349 307.176V311.657L372.032 311.612L372.047 336.186Z" fill="#F6F6F6"/>
<path d="M321.724 307.039L321.669 336.501L326.945 336.511L327.001 307.049L321.724 307.039Z" fill="#F6F6F6"/>
<defs>
<linearGradient id="paint0_linear_9955_654" x1="134.271" y1="99.3574" x2="208.253" y2="103.043" gradientUnits="userSpaceOnUse">
<stop stop-color="#6B20BA"/>
<stop offset="1" stop-color="#8F49EA"/>
</linearGradient>
<linearGradient id="paint1_linear_9955_654" x1="380.878" y1="84.3466" x2="426.808" y2="135.212" gradientUnits="userSpaceOnUse">
<stop stop-color="#6B20BA"/>
<stop offset="1" stop-color="#8F49EA"/>
</linearGradient>
<linearGradient id="paint2_linear_9955_654" x1="297.543" y1="-3.63624e-07" x2="393.857" y2="46.3134" gradientUnits="userSpaceOnUse">
<stop stop-color="#6B20BA"/>
<stop offset="1" stop-color="#8F49EA"/>
</linearGradient>
<linearGradient id="paint3_linear_9955_654" x1="213.442" y1="5.86809e-06" x2="314.458" y2="48.5407" gradientUnits="userSpaceOnUse">
<stop stop-color="#6B20BA"/>
<stop offset="1" stop-color="#8F49EA"/>
</linearGradient>
</defs>
</svg>
