<svg width="56" height="53" viewBox="0 0 56 53" fill="none" xmlns="http://www.w3.org/2000/svg">
  <path d="M3.27759 13.5417L8.09416 13.7957L15.9446 18.4965L15.5518 33.5422L21.1987 38.8229L13.0988 35.1095L10.4494 19.378L3.27759 13.5417Z" fill="#3A0B77"/>
  <path d="M53.0969 13.5317L48.28 13.7866L40.4296 18.4873L40.8223 33.533L35.1809 38.8108L43.2754 35.1002L45.9248 19.3689L53.0969 13.5317Z" fill="#3A0B77"/>
  <path d="M21.1987 38.8229L23.3576 50.7221L3.28232 39.6687L3.27759 13.5417L13.4857 19.3776L13.5333 34.5434L21.1987 38.8229Z" fill="url(#dtc_p0)"/>
  <path d="M33.0537 50.7042L35.181 38.8108L42.8393 34.5391L42.9033 19.3933L53.097 13.5317V18.0068L53.0904 39.6919L33.0537 50.7042Z" fill="url(#dtc_p1)"/>
  <path d="M45.0214 10.369L42.0002 11.6556L37.1746 14.3047L29.8545 51.4557L33.4805 9.78724L37.3337 7.99878L45.0214 10.369Z" fill="#3A0B77"/>
  <path d="M11.3442 10.3699L14.3618 11.6556L19.1876 14.3047L26.5473 51.4613L22.8821 9.78724L19.0289 7.99878L11.3442 10.3699Z" fill="#3A0B77"/>
  <path d="M32.6113 29.9954L29.8518 51.474C29.8372 51.5852 29.6681 51.6199 29.5727 51.6242L29.54 39.5627L29.4827 3.21338L32.6677 0.758057L55.2018 0.760239L45.0212 10.369L39.529 10.3882L34.7881 12.8457L32.6109 29.9954H32.6113Z" fill="url(#dtc_p2)"/>
  <path d="M26.5456 51.4613L24.9439 39.1419L21.5866 12.84L16.8495 10.393L11.3439 10.3698L1.18384 0.761078L23.7121 0.756714L26.8731 3.23734L26.8596 29.6257L26.8163 51.4789C26.8163 51.6002 26.748 51.5971 26.7109 51.5975C26.6636 51.5979 26.5605 51.5718 26.546 51.4789H26.5456V51.4613Z" fill="url(#dtc_p3)"/>
  <defs>
    <linearGradient id="dtc_p0" x1="6.48378" y1="19.554" x2="20.4804" y2="20.2513" gradientUnits="userSpaceOnUse">
      <stop stop-color="#7C4AF0"/><stop offset="1" stop-color="#9B6DFF"/>
    </linearGradient>
    <linearGradient id="dtc_p1" x1="53.1392" y1="16.7142" x2="61.8286" y2="26.3374" gradientUnits="userSpaceOnUse">
      <stop stop-color="#7C4AF0"/><stop offset="1" stop-color="#9B6DFF"/>
    </linearGradient>
    <linearGradient id="dtc_p2" x1="37.3728" y1="0.756738" x2="55.5944" y2="9.51873" gradientUnits="userSpaceOnUse">
      <stop stop-color="#7C4AF0"/><stop offset="1" stop-color="#C57AFF"/>
    </linearGradient>
    <linearGradient id="dtc_p3" x1="21.4619" y1="0.756713" x2="40.573" y2="9.94009" gradientUnits="userSpaceOnUse">
      <stop stop-color="#7C4AF0"/><stop offset="1" stop-color="#C57AFF"/>
    </linearGradient>
  </defs>
</svg>
