<?xml version="1.0" encoding="UTF-8"?>
<svg id="Layer_1" data-name="Layer 1" xmlns="http://www.w3.org/2000/svg" viewBox="0 0 2000 2000">
  <defs>
    <style>
      .cls-1 {
        fill: #030404;
      }

      .cls-2, .cls-3 {
        fill: #cecece;
      }

      .cls-2, .cls-4 {
        letter-spacing: .02em;
      }

      .cls-5, .cls-4 {
        fill: #fff;
      }

      .cls-6 {
        fill: #6b20ba;
        letter-spacing: .02em;
      }

      .cls-7 {
        font-family: Quantico-Regular, Quantico;
        font-size: 69.58px;
      }
    </style>
  </defs>
  <rect class="cls-5" x=".38" y=".38" width="1999.24" height="1999.24"/>
  <rect class="cls-1" x="69.84" y="69.84" width="1860.32" height="1860.32"/>
  <text class="cls-7" transform="translate(589.7144 1816.6976)"><tspan class="cls-2" x="0" y="0">LIGHTS OFF.</tspan><tspan class="cls-6" x="414.39" y="0"> </tspan><tspan class="cls-4" x="433.94" y="0">CODE OUT.</tspan></text>
  <polygon class="cls-3" points="424.98 498.66 535.13 504.47 714.65 612.19 705.68 956.94 834.82 1077.93 649.58 992.85 588.99 632.39 424.98 498.66"/>
  <polygon class="cls-3" points="1564.3 498.43 1454.13 504.26 1274.61 611.98 1283.58 956.73 1154.58 1077.66 1339.69 992.64 1400.28 632.18 1564.3 498.43"/>
  <polygon class="cls-5" points="834.82 1077.93 884.19 1350.59 425.09 1097.31 424.98 498.66 658.42 632.38 659.52 979.88 834.82 1077.93"/>
  <polygon class="cls-5" points="1105.93 1350.17 1154.58 1077.66 1329.71 979.78 1331.18 632.74 1564.3 498.43 1564.3 600.97 1564.14 1097.84 1105.93 1350.17"/>
  <polygon class="cls-3" points="1379.62 425.96 1310.53 455.44 1200.17 516.14 1032.76 1367.4 1115.68 412.63 1203.8 371.65 1379.62 425.96"/>
  <polygon class="cls-3" points="609.46 425.98 678.47 455.44 788.83 516.14 957.13 1367.53 873.32 412.63 785.2 371.65 609.46 425.98"/>
  <path class="cls-5" d="M1095.81,875.67l-63.11,492.15c-.33,2.55-4.2,3.34-6.38,3.44l-.75-276.37-1.31-832.89,72.84-56.26,515.33.05-232.82,220.17-125.6.44-108.42,56.31-49.79,392.96Z"/>
  <path class="cls-5" d="M957.1,1367.53l-36.63-282.28-76.78-602.67-108.33-56.07-125.91-.53-232.36-220.17,515.2-.1,72.29,56.84-.31,604.65-.99,500.73c0,2.78-1.56,2.71-2.41,2.72-1.08.01-3.44-.59-3.77-3.12Z"/>
  <g>
    <path d="M242.29,1588.55l.26,46.36,45.2-.73c21.36-.34,34.24-17.67,34.74-37.41.51-20.31-12.69-39.48-34.71-39.79l-45.3-.63.13,11.9c17.12.35,33.18.21,49.89,1.78,12.07,1.13,16.56,16.63,16.37,25.33-.22,9.8-3.99,23.39-16.25,26.11-11.7,2.59-26.4,2-37.43,1.55l.75-34.75-13.63.28ZM484.39,1634.52l14.52-.86-39.32-76.39-14.83.76-38.29,76.1,14.53-1.28,31.54-62.64,31.85,64.31ZM612.1,1605.45l29.51,1.33,17.87,25.03c2.63,3.68,14.85,3.12,16.15,1.67l-20.29-28.6c14.92-4.69,21.34-16.13,19.38-28.93-1.7-11.05-12.7-19.42-25.31-19.4l-49.45.07-.09,11.79,52.73.47c4.63.04,9.71,10.23,8.49,14.94s-8.5,10.38-14.05,10.41l-47.8.23.2,40.04,12.64-.18.03-28.87ZM828.11,1589.84l34.47-32.54-17.28.23-48.41,46.34-.88-47.17-13.08.54-.05,74.11,11.08,3.83c2.42.84,1.29-10.58,3.06-12.42l22.76-23.57,28.6,32.93c3.1,2.93,14.81,2.87,18.11,1.82l-38.38-44.1ZM1093.69,1633.56l-.53-64.81,31.11-.23-1.68-12.06-72.8.28-.46,11.9,30.82-.25.22,66.41,13.32-1.25ZM1221.35,1556.48l-.15,78.1,13.96.03.15-78.1-13.96-.03ZM1380.97,1633.73l-.04-65.14,29.93.12v-11.88s-74.54-.23-74.54-.23l-.39,11.79,31.25.62-.08,65.41,13.87-.69ZM1564.98,1624.42c1.57,3.05,3.39,9.84,6.36,9.66l11.99-.76-37.99-75.96-15.53-.1-37.94,76.49c3.11,1.11,13.52.7,15.57-2.03l29.96-60.86,27.57,53.57ZM1757.56,1633.87l.15-76.98-12.19-.06-.69,59-44.01-53.84c-3.51-4.3-10.43-6.4-18.43-4.91l-.37,77.07,12.71.14.78-59.34,45.01,54.79c3.27,3.99,11.92,5.7,17.03,4.13Z"/>
    <path class="cls-5" d="M1757.56,1633.87c-5.1,1.57-13.75-.15-17.03-4.13l-45.01-54.79-.78,59.34-12.71-.14.37-77.07c8-1.5,14.92.61,18.43,4.91l44.01,53.84.69-59,12.19.06-.15,76.98Z"/>
    <path class="cls-5" d="M242.29,1588.55l13.63-.28-.75,34.75c11.04.45,25.74,1.04,37.43-1.55,12.26-2.72,16.03-16.31,16.25-26.11.19-8.71-4.29-24.2-16.37-25.33-16.71-1.57-32.77-1.43-49.89-1.78l-.13-11.9,45.3.63c22.02.31,35.23,19.47,34.71,39.79-.5,19.74-13.38,37.07-34.74,37.41l-45.2.73-.26-46.36Z"/>
    <path class="cls-5" d="M612.1,1605.45l-.03,28.87-12.64.18-.2-40.04,47.8-.23c5.55-.03,12.79-5.53,14.05-10.41s-3.87-14.89-8.49-14.94l-52.73-.47.09-11.79,49.45-.07c12.61-.02,23.61,8.36,25.31,19.4,1.97,12.8-4.45,24.24-19.38,28.93l20.29,28.6c-1.3,1.45-13.53,2-16.15-1.67l-17.87-25.03-29.51-1.33Z"/>
    <path class="cls-5" d="M828.11,1589.84l38.38,44.1c-3.3,1.05-15.01,1.11-18.11-1.82l-28.6-32.93-22.76,23.57c-1.78,1.84-.64,13.26-3.06,12.42l-11.08-3.83.05-74.11,13.08-.54.88,47.17,48.41-46.34,17.28-.23-34.47,32.54Z"/>
    <path class="cls-5" d="M1564.98,1624.42l-27.57-53.57-29.96,60.86c-2.05,2.73-12.46,3.14-15.57,2.03l37.94-76.49,15.53.1,37.99,75.96-11.99.76c-2.96.19-4.78-6.6-6.36-9.66Z"/>
    <polygon class="cls-5" points="484.39 1634.52 452.54 1570.22 420.99 1632.86 406.46 1634.14 444.75 1558.04 459.58 1557.28 498.9 1633.67 484.39 1634.52"/>
    <polygon class="cls-5" points="1093.69 1633.56 1080.37 1634.81 1080.14 1568.4 1049.33 1568.65 1049.78 1556.74 1122.59 1556.46 1124.27 1568.52 1093.16 1568.75 1093.69 1633.56"/>
    <polygon class="cls-5" points="1380.97 1633.73 1367.1 1634.42 1367.18 1569.01 1335.93 1568.4 1336.33 1556.61 1410.86 1556.84 1410.86 1568.72 1380.93 1568.59 1380.97 1633.73"/>
    <rect class="cls-5" x="1189.21" y="1588.56" width="78.1" height="13.96" transform="translate(-369.5994 2820.7761) rotate(-89.8917)"/>
  </g>
</svg>