<svg width="464" height="53" viewBox="0 0 464 53" fill="none" xmlns="http://www.w3.org/2000/svg">
<g clip-path="url(#clip0_9963_4)">
<path d="M3.27759 13.5417L8.09416 13.7957L15.9446 18.4965L15.5518 33.5422L21.1987 38.8229L13.0988 35.1095L10.4494 19.378L3.27759 13.5417Z" fill="#3A0B77"/>
<path d="M53.0969 13.5317L48.28 13.7866L40.4296 18.4873L40.8223 33.533L35.1809 38.8108L43.2754 35.1002L45.9248 19.3689L53.0969 13.5317Z" fill="#3A0B77"/>
<path d="M21.1987 38.8229L23.3576 50.7221L3.28232 39.6687L3.27759 13.5417L13.4857 19.3776L13.5333 34.5434L21.1987 38.8229Z" fill="url(#paint0_linear_9963_4)"/>
<path d="M33.0537 50.7042L35.181 38.8108L42.8393 34.5391L42.9033 19.3933L53.097 13.5317V18.0068L53.0904 39.6919L33.0537 50.7042Z" fill="url(#paint1_linear_9963_4)"/>
<path d="M45.0214 10.369L42.0002 11.6556L37.1746 14.3047L29.8545 51.4557L33.4805 9.78724L37.3337 7.99878L45.0214 10.369Z" fill="#3A0B77"/>
<path d="M11.3442 10.3699L14.3618 11.6556L19.1876 14.3047L26.5473 51.4613L22.8821 9.78724L19.0289 7.99878L11.3442 10.3699Z" fill="#3A0B77"/>
<path d="M32.6113 29.9954L29.8518 51.474C29.8372 51.5852 29.6681 51.6199 29.5727 51.6242L29.54 39.5627L29.4827 3.21338L32.6677 0.758057L55.2018 0.760239L45.0212 10.369L39.529 10.3882L34.7881 12.8457L32.6109 29.9954H32.6113Z" fill="url(#paint2_linear_9963_4)"/>
<path d="M26.5456 51.4613L24.9439 39.1419L21.5866 12.84L16.8495 10.393L11.3439 10.3698L1.18384 0.761078L23.7121 0.756714L26.8731 3.23734L26.8596 29.6257L26.8163 51.4789C26.8163 51.6002 26.748 51.5971 26.7109 51.5975C26.6636 51.5979 26.5605 51.5718 26.546 51.4789H26.5456V51.4613Z" fill="url(#paint3_linear_9963_4)"/>
<path d="M463.953 37.4524C462.443 37.9162 459.883 37.408 458.912 36.2322L445.589 20.0458L445.358 37.5764L441.596 37.535L441.705 14.7665C444.073 14.3234 446.122 14.9467 447.161 16.2171L460.188 32.1228L460.392 14.6926L464 14.7104L463.956 37.4524H463.953Z" fill="#F6F6F6"/>
<path d="M74.0059 24.0662L78.0404 23.9835L77.8184 34.2496C81.0863 34.3825 85.4375 34.5568 88.8978 33.7917C92.5267 32.9881 93.6427 28.9733 93.7078 26.0781C93.764 23.5049 92.4379 18.9287 88.8622 18.5949C83.9161 18.1311 79.1623 18.1725 74.0947 18.0691L74.0562 14.5535L87.4651 14.7396C93.9831 14.8312 97.8933 20.4915 97.7393 26.4946C97.5913 32.3263 93.7788 37.4461 87.4562 37.5465L74.077 37.7622L74 24.0662H74.0059Z" fill="#F6F6F6"/>
<path d="M169.241 29.0589L169.233 37.5879L165.491 37.6411L165.432 25.8122L179.581 25.7443C181.224 25.7354 183.367 24.1105 183.74 22.6689C184.113 21.2272 182.594 18.27 181.227 18.2552L165.618 18.1163L165.645 14.6333L180.282 14.6126C184.015 14.6067 187.271 17.0823 187.774 20.3438C188.357 24.1253 186.457 27.505 182.038 28.8906L188.043 37.3398C187.659 37.7681 184.039 37.9306 183.263 36.8464L177.973 29.4518L169.238 29.0589H169.241Z" fill="#F6F6F6"/>
<path d="M225.47 24.4445L236.83 37.4728C235.853 37.783 232.387 37.8008 231.47 36.9352L223.004 27.2067L216.267 34.17C215.74 34.7136 216.078 38.0873 215.361 37.8392L212.082 36.7077L212.096 14.8136L215.968 14.6541L216.229 28.5894L230.558 14.8992L235.673 14.8313L225.47 24.4445Z" fill="#F6F6F6"/>
<path d="M412.853 34.6602L404.692 18.8342L395.824 36.8139C395.217 37.6204 392.135 37.7415 391.215 37.4136L402.445 14.8164L407.042 14.8459L418.287 37.2866L414.738 37.5111C413.862 37.5672 413.323 35.5613 412.856 34.6573L412.853 34.6602Z" fill="#F6F6F6"/>
<path d="M138.115 37.6468L128.688 18.6479L119.352 37.1535L115.051 37.5345L126.385 15.0526L130.775 14.8251L142.413 37.3927L138.115 37.6468Z" fill="#F6F6F6"/>
<path d="M296.119 37.3605L292.176 37.7298L292.111 18.1105L282.988 18.1844L283.124 14.6688L304.673 14.5831L305.173 18.146L295.962 18.2139L296.119 37.3605Z" fill="#F6F6F6"/>
<path d="M365.358 37.4137L361.252 37.6176L361.279 18.2937L352.029 18.1105L352.144 14.6274L374.208 14.6954V18.2051L365.346 18.1696L365.358 37.4137Z" fill="#F6F6F6"/>
<path d="M325.949 14.5882L325.905 37.661L330.037 37.6688L330.081 14.596L325.949 14.5882Z" fill="#F6F6F6"/>
</g>
<defs>
<linearGradient id="paint0_linear_9963_4" x1="6.48378" y1="19.554" x2="20.4804" y2="20.2513" gradientUnits="userSpaceOnUse">
<stop stop-color="#7C4AF0"/>
<stop offset="1" stop-color="#9B6DFF"/>
</linearGradient>
<linearGradient id="paint1_linear_9963_4" x1="53.1392" y1="16.7142" x2="61.8286" y2="26.3374" gradientUnits="userSpaceOnUse">
<stop stop-color="#7C4AF0"/>
<stop offset="1" stop-color="#9B6DFF"/>
</linearGradient>
<linearGradient id="paint2_linear_9963_4" x1="37.3728" y1="0.756738" x2="55.5944" y2="9.51873" gradientUnits="userSpaceOnUse">
<stop stop-color="#7C4AF0"/>
<stop offset="1" stop-color="#C57AFF"/>
</linearGradient>
<linearGradient id="paint3_linear_9963_4" x1="21.4619" y1="0.756713" x2="40.573" y2="9.94009" gradientUnits="userSpaceOnUse">
<stop stop-color="#7C4AF0"/>
<stop offset="1" stop-color="#C57AFF"/>
</linearGradient>
<clipPath id="clip0_9963_4">
<rect width="464" height="52.4054" fill="white"/>
</clipPath>
</defs>
</svg>
