<svg width="28" height="28" viewBox="0 0 28 28" fill="none" xmlns="http://www.w3.org/2000/svg">
<rect x="0.5" y="0.5" width="27" height="27" rx="5.5" fill="#111216"/>
<rect x="0.5" y="0.5" width="27" height="27" rx="5.5" stroke="#2A2A33"/>
<g clip-path="url(#clip0_9992_30)">
<path d="M6.4519 10.1345L7.92246 10.2121L10.3193 11.6473L10.1994 16.2409L11.9234 17.8532L9.45043 16.7194L8.64154 11.9164L6.4519 10.1345Z" fill="#3A0B77"/>
<path d="M21.6624 10.1313L20.1917 10.2092L17.7949 11.6444L17.9148 16.238L16.1924 17.8493L18.6637 16.7165L19.4726 11.9135L21.6624 10.1313Z" fill="#3A0B77"/>
<path d="M11.9234 17.8532L12.5826 21.4861L6.45335 18.1114L6.4519 10.1345L9.56855 11.9163L9.58311 16.5466L11.9234 17.8532Z" fill="url(#paint0_linear_9992_30)"/>
<path d="M15.5427 21.4805L16.1922 17.8493L18.5304 16.5451L18.5499 11.921L21.6622 10.1313V11.4976L21.6602 18.1183L15.5427 21.4805Z" fill="url(#paint1_linear_9992_30)"/>
<path d="M19.1968 9.16579L18.2744 9.5586L16.8011 10.3674L14.5662 21.71L15.6732 8.98818L16.8497 8.44214L19.1968 9.16579Z" fill="#3A0B77"/>
<path d="M8.91479 9.16606L9.83609 9.5586L11.3095 10.3674L13.5565 21.7118L12.4375 8.98818L11.261 8.44214L8.91479 9.16606Z" fill="#3A0B77"/>
<path d="M15.4078 15.1579L14.5653 21.7156C14.5609 21.7496 14.5092 21.7602 14.4801 21.7615L14.4701 18.079L14.4526 6.98108L15.4251 6.23145L22.305 6.23211L19.1967 9.16578L17.5199 9.17164L16.0724 9.92195L15.4077 15.1579H15.4078Z" fill="url(#paint2_linear_9992_30)"/>
<path d="M13.556 21.7117L13.067 17.9504L12.0419 9.92013L10.5956 9.17302L8.91472 9.16596L5.81274 6.23229L12.6909 6.23096L13.656 6.98832L13.6519 15.045L13.6387 21.7171C13.6387 21.7541 13.6178 21.7532 13.6065 21.7533C13.592 21.7534 13.5606 21.7454 13.5561 21.7171H13.556V21.7117Z" fill="url(#paint3_linear_9992_30)"/>
</g>
<defs>
<linearGradient id="paint0_linear_9992_30" x1="7.43079" y1="11.9701" x2="11.7041" y2="12.183" gradientUnits="userSpaceOnUse">
<stop stop-color="#7C4AF0"/>
<stop offset="1" stop-color="#9B6DFF"/>
</linearGradient>
<linearGradient id="paint1_linear_9992_30" x1="21.6751" y1="11.103" x2="24.3281" y2="14.0411" gradientUnits="userSpaceOnUse">
<stop stop-color="#7C4AF0"/>
<stop offset="1" stop-color="#9B6DFF"/>
</linearGradient>
<linearGradient id="paint2_linear_9992_30" x1="16.8616" y1="6.23104" x2="22.4249" y2="8.90619" gradientUnits="userSpaceOnUse">
<stop stop-color="#7C4AF0"/>
<stop offset="1" stop-color="#C57AFF"/>
</linearGradient>
<linearGradient id="paint3_linear_9992_30" x1="12.0039" y1="6.23096" x2="17.8387" y2="9.03475" gradientUnits="userSpaceOnUse">
<stop stop-color="#7C4AF0"/>
<stop offset="1" stop-color="#C57AFF"/>
</linearGradient>
<clipPath id="clip0_9992_30">
<rect width="17.0975" height="16" fill="white" transform="translate(5.45117 6)"/>
</clipPath>
</defs>
</svg>
